# This file uses centimeters as units for non-parametric coordinates.

g default
v -128.000000 0.000000 128.000000
v -127.000000 0.000000 128.000000
v 127.000000 0.000000 128.000000
v 128.000000 0.000000 128.000000
v -128.000000 0.000000 127.000000
v -127.000000 0.000000 127.000000
v 127.000000 0.000000 127.000000
v 128.000000 0.000000 127.000000
v -128.000000 0.000000 -127.000000
v -127.000000 0.000000 -127.000000
v 127.000000 0.000000 -127.000000
v 128.000000 0.000000 -127.000000
v -128.000000 0.000000 -128.000000
v -127.000000 0.000000 -128.000000
v 127.000000 0.000000 -128.000000
v 128.000000 0.000000 -128.000000
v -128.000000 3.160517 128.000000
v -127.000000 3.160517 128.000000
v -127.000000 3.160517 127.000000
v -128.000000 3.160517 127.000000
v 127.000000 3.160517 128.000000
v 127.000000 3.160517 127.000000
v 128.000000 3.160517 128.000000
v 128.000000 3.160517 127.000000
v -127.000000 3.160517 -127.000000
v -128.000000 3.160517 -127.000000
v 128.000000 3.160517 -127.000000
v -127.000000 3.160517 -128.000000
v -128.000000 3.160517 -128.000000
v 127.000000 3.160517 -127.000000
v 127.000000 3.160517 -128.000000
v 128.000000 3.160517 -128.000000
vt 0.000000 0.000000
vt 0.003906 0.000000
vt 0.003906 0.003906
vt 0.000000 0.003906
vt 0.003906 0.003906
vt 0.996094 0.000000
vt 0.996094 0.003906
vt 1.000000 0.000000
vt 1.000000 0.003906
vt 0.003906 0.996094
vt 0.000000 0.996094
vt 0.003906 0.996094
vt 0.996094 0.003906
vt 0.996094 0.996094
vt 1.000000 0.996094
vt 0.996094 0.996094
vt 0.003906 1.000000
vt 0.000000 1.000000
vt 0.996094 1.000000
vt 1.000000 1.000000
vt 0.000000 0.000000
vt 0.003906 0.000000
vt 0.000000 0.003906
vt 0.996094 0.000000
vt 1.000000 0.000000
vt 1.000000 0.003906
vt 1.000000 0.996094
vt 0.000000 0.996094
vt 0.003906 1.000000
vt 0.000000 1.000000
vt 0.996094 1.000000
vt 1.000000 1.000000
vt 0.003906 0.003906
vt 0.003906 0.003906
vt 0.003906 0.003906
vn 0.000000 1.000000 0.000000
vn 0.000000 1.000000 0.000000
vn 0.000000 1.000000 0.000000
vn 0.000000 1.000000 0.000000
vn 0.000000 1.000000 0.000000
vn 0.000000 1.000000 0.000000
vn 0.000000 1.000000 0.000000
vn 0.000000 1.000000 0.000000
vn 0.000000 1.000000 0.000000
vn 0.000000 1.000000 0.000000
vn 0.000000 1.000000 0.000000
vn 0.000000 1.000000 0.000000
vn 0.000000 1.000000 0.000000
vn 0.000000 1.000000 0.000000
vn 0.000000 1.000000 0.000000
vn 0.000000 1.000000 0.000000
vn 0.000000 1.000000 0.000000
vn 0.000000 1.000000 0.000000
vn 0.000000 1.000000 0.000000
vn 0.000000 1.000000 0.000000
vn 0.000000 1.000000 0.000000
vn 0.000000 1.000000 0.000000
vn 0.000000 1.000000 0.000000
vn 0.000000 1.000000 0.000000
vn 0.000000 1.000000 0.000000
vn 0.000000 1.000000 0.000000
vn 0.000000 1.000000 0.000000
vn 0.000000 1.000000 0.000000
vn 0.000000 1.000000 0.000000
vn 0.000000 1.000000 0.000000
vn 0.000000 1.000000 0.000000
vn 0.000000 1.000000 0.000000
vn 0.000000 1.000000 0.000000
vn 0.000000 1.000000 0.000000
vn 0.000000 1.000000 0.000000
vn 0.000000 1.000000 0.000000
vn 0.000000 0.000000 1.000000
vn 0.000000 0.000000 1.000000
vn 0.000000 0.000000 1.000000
vn 0.000000 0.000000 1.000000
vn -1.000000 0.000000 0.000000
vn -1.000000 0.000000 0.000000
vn -1.000000 0.000000 0.000000
vn -1.000000 0.000000 0.000000
vn 0.000000 0.000000 1.000000
vn 0.000000 0.000000 1.000000
vn 0.000000 0.000000 1.000000
vn 0.000000 0.000000 1.000000
vn 0.000000 0.000000 -1.000000
vn 0.000000 0.000000 -1.000000
vn 0.000000 0.000000 -1.000000
vn 0.000000 0.000000 -1.000000
vn 0.000000 0.000000 1.000000
vn 0.000000 0.000000 1.000000
vn 0.000000 0.000000 1.000000
vn 0.000000 0.000000 1.000000
vn 1.000000 0.000000 0.000000
vn 1.000000 0.000000 0.000000
vn 1.000000 0.000000 0.000000
vn 1.000000 0.000000 0.000000
vn 1.000000 0.000000 0.000000
vn 1.000000 0.000000 0.000000
vn 1.000000 0.000000 0.000000
vn 1.000000 0.000000 0.000000
vn 1.000000 0.000000 0.000000
vn 1.000000 0.000000 0.000000
vn 1.000000 0.000000 0.000000
vn 1.000000 0.000000 0.000000
vn -1.000000 0.000000 0.000000
vn -1.000000 0.000000 0.000000
vn -1.000000 0.000000 0.000000
vn -1.000000 0.000000 0.000000
vn -1.000000 0.000000 0.000000
vn -1.000000 0.000000 0.000000
vn -1.000000 0.000000 0.000000
vn -1.000000 0.000000 0.000000
vn 0.000000 0.000000 -1.000000
vn 0.000000 0.000000 -1.000000
vn 0.000000 0.000000 -1.000000
vn 0.000000 0.000000 -1.000000
vn -1.000000 0.000000 0.000000
vn -1.000000 0.000000 0.000000
vn -1.000000 0.000000 0.000000
vn -1.000000 0.000000 0.000000
vn 0.000000 0.000000 1.000000
vn 0.000000 0.000000 1.000000
vn 0.000000 0.000000 1.000000
vn 0.000000 0.000000 1.000000
vn 0.000000 0.000000 -1.000000
vn 0.000000 0.000000 -1.000000
vn 0.000000 0.000000 -1.000000
vn 0.000000 0.000000 -1.000000
vn 1.000000 0.000000 0.000000
vn 1.000000 0.000000 0.000000
vn 1.000000 0.000000 0.000000
vn 1.000000 0.000000 0.000000
vn 0.000000 0.000000 -1.000000
vn 0.000000 0.000000 -1.000000
vn 0.000000 0.000000 -1.000000
vn 0.000000 0.000000 -1.000000
g floor
f 17/1/1 18/2/2 20/4/3
f 20/4/3 18/2/2 19/3/4
f 19/5/5 18/2/6 22/7/7
f 22/7/7 18/2/6 21/6/8
f 21/6/9 23/8/10 22/7/11
f 22/7/11 23/8/10 24/9/12
f 19/5/13 25/10/14 20/4/15
f 20/4/15 25/10/14 26/11/16
f 10/12/17 6/33/18 11/14/19
f 11/14/19 6/33/18 7/13/20
f 24/9/21 27/15/22 22/7/23
f 22/7/23 27/15/22 30/16/24
f 26/11/25 25/10/26 29/18/27
f 29/18/27 25/10/26 28/17/28
f 28/17/29 25/10/30 31/19/31
f 31/19/31 25/10/30 30/16/32
f 30/16/33 27/15/34 31/19/35
f 31/19/35 27/15/34 32/20/36
f 1/21/37 2/22/38 17/1/39
f 17/1/39 2/22/38 18/2/40
f 5/23/41 1/21/42 20/4/43
f 20/4/43 1/21/42 17/1/44
f 18/2/45 2/22/46 21/6/47
f 21/6/47 2/22/46 3/24/48
f 19/5/49 22/7/50 6/34/51
f 6/34/51 22/7/50 7/13/52
f 3/24/53 4/25/54 21/6/55
f 21/6/55 4/25/54 23/8/56
f 4/25/57 8/26/58 23/8/59
f 23/8/59 8/26/58 24/9/60
f 19/5/61 6/35/62 25/10/63
f 25/10/63 6/35/62 10/12/64
f 24/9/65 8/26/66 27/15/67
f 27/15/67 8/26/66 12/27/68
f 20/4/69 26/11/70 5/23/71
f 5/23/71 26/11/70 9/28/72
f 22/7/73 30/16/74 7/13/75
f 7/13/75 30/16/74 11/14/76
f 14/29/77 13/30/78 28/17/79
f 28/17/79 13/30/78 29/18/80
f 13/30/81 9/28/82 29/18/83
f 29/18/83 9/28/82 26/11/84
f 25/10/85 10/12/86 30/16/87
f 30/16/87 10/12/86 11/14/88
f 28/17/89 31/19/90 14/29/91
f 14/29/91 31/19/90 15/31/92
f 12/27/93 16/32/94 27/15/95
f 27/15/95 16/32/94 32/20/96
f 16/32/97 15/31/98 32/20/99
f 32/20/99 15/31/98 31/19/100
