# This file uses centimeters as units for non-parametric coordinates.

g default
v 0.000000 0.605936 -0.197032
v 0.000000 0.710521 -0.353554
v 0.250000 0.710521 -0.250000
v 0.139323 0.605936 -0.139323
v -0.139323 0.605936 -0.139323
v -0.250000 0.710521 -0.250000
v 0.000000 0.872732 -0.461940
v 0.326640 0.872732 -0.326640
v 0.353554 0.710521 0.000000
v 0.197032 0.605936 0.000000
v -0.197032 0.605936 0.000000
v -0.353554 0.710521 0.000000
v -0.326640 0.872732 -0.326640
v 0.461940 0.872732 0.000000
v 0.000000 1.064074 -0.500000
v 0.353554 1.064074 -0.353554
v 0.250000 0.710521 0.250000
v 0.139323 0.605936 0.139323
v -0.139323 0.605936 0.139323
v -0.250000 0.710521 0.250000
v -0.461940 0.872732 0.000000
v -0.353554 1.064074 -0.353554
v 0.326640 0.872732 0.326640
v 0.500000 1.064074 0.000000
v 0.000000 1.255415 -0.461940
v 0.326640 1.255415 -0.326640
v 0.000000 0.710521 0.353554
v 0.000000 0.605936 0.197032
v -0.326640 0.872732 0.326640
v -0.500000 1.064074 0.000000
v -0.326640 1.255415 -0.326640
v 0.000000 0.872732 0.461940
v 0.353554 1.064074 0.353554
v 0.461940 1.255415 0.000000
v 0.000000 1.417627 -0.353554
v 0.250000 1.417627 -0.250000
v -0.353554 1.064074 0.353554
v -0.461940 1.255415 0.000000
v -0.250000 1.417627 -0.250000
v 0.000000 1.064074 0.500000
v 0.326640 1.255415 0.326640
v 0.353554 1.417627 0.000000
v 0.000000 1.526013 -0.191342
v 0.135299 1.526013 -0.135299
v -0.326640 1.255415 0.326640
v -0.353554 1.417627 0.000000
v -0.135299 1.526013 -0.135299
v 0.000000 1.255415 0.461940
v 0.250000 1.417627 0.250000
v 0.191342 1.526013 0.000000
v 0.000000 1.564073 0.000000
v -0.250000 1.417627 0.250000
v -0.191342 1.526013 0.000000
v 0.000000 1.417627 0.353554
v 0.135299 1.526013 0.135299
v -0.135299 1.526013 0.135299
v 0.000000 1.526013 0.191342
v 0.353554 0.000000 -0.353554
v 0.500000 0.000000 0.000000
v 0.353554 0.000000 0.353554
v 0.000000 0.000000 0.500000
v -0.353554 0.000000 0.353554
v -0.500000 0.000000 0.000000
v -0.353554 0.000000 -0.353554
v 0.000000 0.000000 -0.500000
vt 0.125000 0.129385
vt 0.125000 0.250000
vt 0.000000 0.129385
vt 0.000000 0.250000
vt 0.250000 0.129385
vt 0.250000 0.250000
vt 0.000000 0.375000
vt 0.125000 0.375000
vt 1.000000 0.129385
vt 1.000000 0.250000
vt 0.875000 0.129385
vt 0.875000 0.250000
vt 0.375000 0.129385
vt 0.375000 0.250000
vt 0.250000 0.375000
vt 0.875000 0.375000
vt 1.000000 0.375000
vt 0.000000 0.500000
vt 0.125000 0.500000
vt 0.750000 0.129385
vt 0.750000 0.250000
vt 0.500000 0.129385
vt 0.500000 0.250000
vt 0.375000 0.375000
vt 0.250000 0.500000
vt 0.750000 0.375000
vt 0.875000 0.500000
vt 1.000000 0.500000
vt 0.000000 0.625000
vt 0.125000 0.625000
vt 0.625000 0.129385
vt 0.625000 0.250000
vt 0.500000 0.375000
vt 0.375000 0.500000
vt 0.250000 0.625000
vt 0.625000 0.375000
vt 0.750000 0.500000
vt 0.875000 0.625000
vt 1.000000 0.625000
vt 0.000000 0.750000
vt 0.125000 0.750000
vt 0.500000 0.500000
vt 0.375000 0.625000
vt 0.250000 0.750000
vt 0.625000 0.500000
vt 0.750000 0.625000
vt 0.875000 0.750000
vt 1.000000 0.750000
vt 0.000000 0.875000
vt 0.125000 0.875000
vt 0.500000 0.625000
vt 0.375000 0.750000
vt 0.250000 0.875000
vt 0.625000 0.625000
vt 0.750000 0.750000
vt 0.875000 0.875000
vt 1.000000 0.875000
vt 0.062500 1.000000
vt 0.500000 0.750000
vt 0.375000 0.875000
vt 0.187500 1.000000
vt 0.625000 0.750000
vt 0.750000 0.875000
vt 0.937500 1.000000
vt 0.500000 0.875000
vt 0.312500 1.000000
vt 0.625000 0.875000
vt 0.812500 1.000000
vt 0.437500 1.000000
vt 0.687500 1.000000
vt 0.562500 1.000000
vt 0.676777 0.073223
vt 0.750000 0.250000
vt 0.500000 0.000000
vt 0.676777 0.426777
vt 0.500000 0.500000
vt 0.323223 0.426777
vt 0.250000 0.250000
vt 0.323223 0.073223
vt 0.401484 0.802968
vt 0.250000 0.500000
vt 0.426113 0.802968
vt 0.312500 0.500000
vt 0.573887 0.802968
vt 0.687500 0.500000
vt 0.598516 0.802968
vt 0.750000 0.500000
vt 0.549258 0.802968
vt 0.625000 0.500000
vt 0.524629 0.802968
vt 0.562500 0.500000
vt 0.500000 0.802968
vt 0.500000 0.500000
vt 0.475371 0.802968
vt 0.437500 0.500000
vt 0.450742 0.802968
vt 0.375000 0.500000
vn 0.224263 -0.810291 -0.541419
vn 0.224263 -0.810291 -0.541419
vn 0.224263 -0.810291 -0.541419
vn 0.224263 -0.810291 -0.541419
vn -0.224263 -0.810291 -0.541419
vn -0.224263 -0.810291 -0.541419
vn 0.325634 -0.525289 -0.786151
vn 0.325634 -0.525289 -0.786151
vn 0.541419 -0.810291 -0.224263
vn 0.541419 -0.810291 -0.224263
vn -0.541419 -0.810291 -0.224263
vn -0.541419 -0.810291 -0.224263
vn -0.325635 -0.525289 -0.786151
vn 0.786151 -0.525289 -0.325635
vn 0.376381 -0.180744 -0.908663
vn 0.376381 -0.180744 -0.908663
vn 0.541419 -0.810291 0.224263
vn 0.541419 -0.810291 0.224263
vn -0.541419 -0.810291 0.224263
vn -0.541419 -0.810291 0.224263
vn -0.786151 -0.525289 -0.325634
vn -0.376381 -0.180744 -0.908663
vn 0.786151 -0.525289 0.325634
vn 0.908663 -0.180745 -0.376381
vn 0.376381 0.180744 -0.908663
vn 0.376381 0.180744 -0.908663
vn 0.224263 -0.810291 0.541419
vn 0.224263 -0.810291 0.541419
vn -0.786151 -0.525289 0.325635
vn -0.908663 -0.180744 -0.376381
vn -0.376381 0.180744 -0.908663
vn 0.325634 -0.525289 0.786151
vn 0.908663 -0.180745 0.376381
vn 0.908663 0.180744 -0.376381
vn 0.325634 0.525289 -0.786151
vn 0.325634 0.525289 -0.786151
vn -0.908663 -0.180744 0.376381
vn -0.908663 0.180744 -0.376381
vn -0.325634 0.525289 -0.786151
vn 0.376381 -0.180744 0.908663
vn 0.908663 0.180745 0.376381
vn 0.786151 0.525289 -0.325635
vn 0.224263 0.810291 -0.541419
vn 0.224263 0.810291 -0.541419
vn -0.908663 0.180744 0.376381
vn -0.786151 0.525289 -0.325635
vn -0.224263 0.810291 -0.541419
vn 0.376381 0.180745 0.908663
vn 0.786151 0.525289 0.325634
vn 0.541419 0.810291 -0.224264
vn 0.080547 0.977598 -0.194457
vn -0.786151 0.525289 0.325635
vn -0.541419 0.810291 -0.224263
vn 0.325635 0.525289 0.786151
vn 0.541419 0.810291 0.224263
vn -0.541419 0.810291 0.224263
vn 0.224263 0.810291 0.541419
vn 0.000000 -1.000000 0.000000
vn 0.000000 -1.000000 0.000000
vn 0.000000 -1.000000 0.000000
vn 0.000000 -1.000000 0.000000
vn 0.000000 -1.000000 0.000000
vn 0.000000 -1.000000 0.000000
vn 0.000000 -1.000000 0.000000
vn 0.000000 -1.000000 0.000000
vn 0.000000 -1.000000 0.000000
vn 0.000000 -1.000000 0.000000
vn 0.000000 -1.000000 0.000000
vn 0.000000 -1.000000 0.000000
vn 0.000000 -1.000000 0.000000
vn 0.000000 -1.000000 0.000000
vn 0.000000 -1.000000 0.000000
vn 0.000000 -1.000000 0.000000
vn 0.000000 -1.000000 0.000000
vn 0.000000 -1.000000 0.000000
vn 0.224263 -0.810291 -0.541419
vn 0.703861 -0.095707 -0.703861
vn 0.224263 -0.810291 -0.541419
vn 0.224263 -0.810291 -0.541419
vn 0.703861 -0.095707 -0.703861
vn -0.000000 -0.095707 -0.995410
vn 0.541419 -0.810291 -0.224263
vn 0.995410 -0.095707 -0.000000
vn 0.224263 -0.810291 -0.541419
vn 0.224263 -0.810291 -0.541419
vn 0.995410 -0.095707 -0.000000
vn 0.703861 -0.095707 -0.703861
vn 0.541419 -0.810291 0.224263
vn 0.703861 -0.095707 0.703861
vn 0.541419 -0.810291 -0.224263
vn 0.541419 -0.810291 -0.224263
vn 0.703861 -0.095707 0.703861
vn 0.995410 -0.095707 -0.000000
vn 0.224263 -0.810291 0.541419
vn 0.000000 -0.095707 0.995410
vn 0.541419 -0.810291 0.224263
vn 0.541419 -0.810291 0.224263
vn 0.000000 -0.095707 0.995410
vn 0.703861 -0.095707 0.703861
vn -0.541419 -0.810291 0.224263
vn -0.703861 -0.095707 0.703861
vn 0.224263 -0.810291 0.541419
vn 0.224263 -0.810291 0.541419
vn -0.703861 -0.095707 0.703861
vn 0.000000 -0.095707 0.995410
vn -0.541419 -0.810291 -0.224263
vn -0.995410 -0.095707 0.000000
vn -0.541419 -0.810291 0.224263
vn -0.541419 -0.810291 0.224263
vn -0.995410 -0.095707 0.000000
vn -0.703861 -0.095707 0.703861
vn -0.224263 -0.810291 -0.541419
vn -0.703861 -0.095707 -0.703861
vn -0.541419 -0.810291 -0.224263
vn -0.541419 -0.810291 -0.224263
vn -0.703861 -0.095707 -0.703861
vn -0.995410 -0.095707 0.000000
vn 0.224263 -0.810291 -0.541419
vn -0.000000 -0.095707 -0.995410
vn -0.224263 -0.810291 -0.541419
vn -0.224263 -0.810291 -0.541419
vn -0.000000 -0.095707 -0.995410
vn -0.703861 -0.095707 -0.703861
g peep
f 1/1/1 2/2/2 4/3/3
f 4/3/3 2/2/2 3/4/4
f 5/5/5 6/6/6 1/1/1
f 1/1/1 6/6/6 2/2/2
f 3/4/4 2/2/2 8/7/7
f 8/7/7 2/2/2 7/8/8
f 4/9/3 3/10/4 10/11/9
f 10/11/9 3/10/4 9/12/10
f 11/13/11 12/14/12 5/5/5
f 5/5/5 12/14/12 6/6/6
f 2/2/2 6/6/6 7/8/8
f 7/8/8 6/6/6 13/15/13
f 9/12/10 3/10/4 14/16/14
f 14/16/14 3/10/4 8/17/7
f 8/7/7 7/8/8 16/18/15
f 16/18/15 7/8/8 15/19/16
f 10/11/9 9/12/10 18/20/17
f 18/20/17 9/12/10 17/21/18
f 19/22/19 20/23/20 11/13/11
f 11/13/11 20/23/20 12/14/12
f 6/6/6 12/14/12 13/15/13
f 13/15/13 12/14/12 21/24/21
f 7/8/8 13/15/13 15/19/16
f 15/19/16 13/15/13 22/25/22
f 17/21/18 9/12/10 23/26/23
f 23/26/23 9/12/10 14/16/14
f 14/16/14 8/17/7 24/27/24
f 24/27/24 8/17/7 16/28/15
f 16/18/15 15/19/16 26/29/25
f 26/29/25 15/19/16 25/30/26
f 18/20/17 17/21/18 28/31/27
f 28/31/27 17/21/18 27/32/28
f 28/31/27 27/32/28 19/22/19
f 19/22/19 27/32/28 20/23/20
f 12/14/12 20/23/20 21/24/21
f 21/24/21 20/23/20 29/33/29
f 13/15/13 21/24/21 22/25/22
f 22/25/22 21/24/21 30/34/30
f 15/19/16 22/25/22 25/30/26
f 25/30/26 22/25/22 31/35/31
f 27/32/28 17/21/18 32/36/32
f 32/36/32 17/21/18 23/26/23
f 23/26/23 14/16/14 33/37/33
f 33/37/33 14/16/14 24/27/24
f 24/27/24 16/28/15 34/38/34
f 34/38/34 16/28/15 26/39/25
f 26/29/25 25/30/26 36/40/35
f 36/40/35 25/30/26 35/41/36
f 20/23/20 27/32/28 29/33/29
f 29/33/29 27/32/28 32/36/32
f 21/24/21 29/33/29 30/34/30
f 30/34/30 29/33/29 37/42/37
f 22/25/22 30/34/30 31/35/31
f 31/35/31 30/34/30 38/43/38
f 25/30/26 31/35/31 35/41/36
f 35/41/36 31/35/31 39/44/39
f 32/36/32 23/26/23 40/45/40
f 40/45/40 23/26/23 33/37/33
f 33/37/33 24/27/24 41/46/41
f 41/46/41 24/27/24 34/38/34
f 34/38/34 26/39/25 42/47/42
f 42/47/42 26/39/25 36/48/35
f 36/40/35 35/41/36 44/49/43
f 44/49/43 35/41/36 43/50/44
f 29/33/29 32/36/32 37/42/37
f 37/42/37 32/36/32 40/45/40
f 30/34/30 37/42/37 38/43/38
f 38/43/38 37/42/37 45/51/45
f 31/35/31 38/43/38 39/44/39
f 39/44/39 38/43/38 46/52/46
f 35/41/36 39/44/39 43/50/44
f 43/50/44 39/44/39 47/53/47
f 40/45/40 33/37/33 48/54/48
f 48/54/48 33/37/33 41/46/41
f 41/46/41 34/38/34 49/55/49
f 49/55/49 34/38/34 42/47/42
f 42/47/42 36/48/35 50/56/50
f 50/56/50 36/48/35 44/57/43
f 44/49/43 43/50/44 51/58/51
f 37/42/37 40/45/40 45/51/45
f 45/51/45 40/45/40 48/54/48
f 38/43/38 45/51/45 46/52/46
f 46/52/46 45/51/45 52/59/52
f 39/44/39 46/52/46 47/53/47
f 47/53/47 46/52/46 53/60/53
f 43/50/44 47/53/47 51/61/51
f 48/54/48 41/46/41 54/62/54
f 54/62/54 41/46/41 49/55/49
f 49/55/49 42/47/42 55/63/55
f 55/63/55 42/47/42 50/56/50
f 50/56/50 44/57/43 51/64/51
f 45/51/45 48/54/48 52/59/52
f 52/59/52 48/54/48 54/62/54
f 46/52/46 52/59/52 53/60/53
f 53/60/53 52/59/52 56/65/56
f 47/53/47 53/60/53 51/66/51
f 54/62/54 49/55/49 57/67/57
f 57/67/57 49/55/49 55/63/55
f 55/63/55 50/56/50 51/68/51
f 52/59/52 54/62/54 56/65/56
f 56/65/56 54/62/54 57/67/57
f 53/60/53 56/65/56 51/69/51
f 57/67/57 55/63/55 51/70/51
f 56/65/56 57/67/57 51/71/51
f 58/72/58 59/73/59 65/74/60
f 59/73/61 60/75/62 65/74/63
f 60/75/64 61/76/65 65/74/66
f 61/76/67 62/77/68 65/74/69
f 62/77/70 63/78/71 65/74/72
f 63/78/73 64/79/74 65/74/75
f 4/80/76 58/81/77 1/82/78
f 1/82/79 58/81/80 65/83/81
f 10/84/82 59/85/83 4/86/84
f 4/86/85 59/85/86 58/87/87
f 18/88/88 60/89/89 10/84/90
f 10/84/91 60/89/92 59/85/93
f 28/90/94 61/91/95 18/88/96
f 18/88/97 61/91/98 60/89/99
f 19/92/100 62/93/101 28/90/102
f 28/90/103 62/93/104 61/91/105
f 11/94/106 63/95/107 19/92/108
f 19/92/109 63/95/110 62/93/111
f 5/96/112 64/97/113 11/94/114
f 11/94/115 64/97/116 63/95/117
f 1/82/118 65/83/119 5/96/120
f 5/96/121 65/83/122 64/97/123
